<svg id="Layer_1" data-name="Layer 1" xmlns="http://www.w3.org/2000/svg" viewBox="0 0 400 125"><defs><style>.cls-1{fill:#3fa9f5;}.cls-2{fill:#4d4d4d;}</style></defs><path class="cls-1" d="M15.59,49.73l-1.94.71,1.94.69,15.58,5.2V64L6,53.6V47.2L31.17,36.76v7.68Z"/><path class="cls-1" d="M37.74,68.14V26.72H48.46a19.05,19.05,0,0,1,7.47,1.41,16.69,16.69,0,0,1,5.72,3.93,17.4,17.4,0,0,1,3.66,6,21.8,21.8,0,0,1,1.3,7.68v3.41a21.7,21.7,0,0,1-1.3,7.67,17.93,17.93,0,0,1-3.62,6,16.16,16.16,0,0,1-5.61,3.91,18.19,18.19,0,0,1-7.22,1.4Zm8-34.93v28.5h3.07a9.34,9.34,0,0,0,4-.85,8.26,8.26,0,0,0,3-2.48,11.37,11.37,0,0,0,1.89-3.94,19.25,19.25,0,0,0,.66-5.28V45.69a19.06,19.06,0,0,0-.64-5.07,11.57,11.57,0,0,0-1.91-3.94,8.73,8.73,0,0,0-3.13-2.56,9.66,9.66,0,0,0-4.31-.91Z"/><path class="cls-1" d="M96.51,50h-17V61.68H99.38v6.46H71.48V26.72H99.3v6.52H79.5V43.68h17Z"/><path class="cls-1" d="M119.07,56.56l7.82-29.84h8.82L123.16,68.14H115L102.51,26.72h8.82Z"/><path class="cls-1" d="M159.4,57.33a5.73,5.73,0,0,0-.38-2.08,5,5,0,0,0-1.31-1.8,9.52,9.52,0,0,0-2.42-1.54,22.53,22.53,0,0,0-3.71-1.29,35.83,35.83,0,0,1-5.16-1.85,18.58,18.58,0,0,1-4.34-2.68,12.3,12.3,0,0,1-3-3.64A9.84,9.84,0,0,1,138,37.67a10.17,10.17,0,0,1,1.11-4.75,11,11,0,0,1,3.08-3.64A14.58,14.58,0,0,1,146.77,27a19.93,19.93,0,0,1,5.8-.81,18,18,0,0,1,5.93.94,14.06,14.06,0,0,1,4.63,2.63,11.93,11.93,0,0,1,4.09,9.15h-7.79a8.32,8.32,0,0,0-.5-2.56,5.35,5.35,0,0,0-1.31-2A6.13,6.13,0,0,0,155.46,33a8.94,8.94,0,0,0-3-.46,9.46,9.46,0,0,0-2.83.38A6.35,6.35,0,0,0,147.51,34a4.64,4.64,0,0,0-1.29,1.65,4.76,4.76,0,0,0-.44,2.06,3.92,3.92,0,0,0,.58,2.11,5.78,5.78,0,0,0,1.69,1.69,14.32,14.32,0,0,0,2.69,1.38,32.57,32.57,0,0,0,3.57,1.17,31.25,31.25,0,0,1,5.23,2,16.69,16.69,0,0,1,4.11,2.83,12.16,12.16,0,0,1,2.68,3.73,11.14,11.14,0,0,1,.95,4.65,10.41,10.41,0,0,1-1.1,4.85,10.52,10.52,0,0,1-3,3.58,13.63,13.63,0,0,1-4.61,2.22,22.19,22.19,0,0,1-9.74.4,18.45,18.45,0,0,1-3.73-1.09,16.44,16.44,0,0,1-3.31-1.85,12.34,12.34,0,0,1-2.66-2.59,12,12,0,0,1-1.77-3.36,13,13,0,0,1-.64-4.15h7.85a8.47,8.47,0,0,0,.66,3.21,5.65,5.65,0,0,0,1.66,2.19,7,7,0,0,0,2.56,1.26,13,13,0,0,0,3.29.39,9.8,9.8,0,0,0,2.83-.37,6.27,6.27,0,0,0,2.09-1,4.4,4.4,0,0,0,1.76-3.61Z"/><path class="cls-1" d="M235.12,68.14h-8L215.63,41.43V68.14h-8V26.72h8l11.44,26.6,0-26.6h8Z"/><path class="cls-1" d="M266.57,50h-17V61.68h19.88v6.46h-27.9V26.72h27.82v6.52h-19.8V43.68h17Z"/><path class="cls-1" d="M295.76,51.67l3-25h7.34l-5.75,41.42h-7.22l-3.93-24.46-3.78,24.46h-7.23l-5.69-41.42h7.31l3,24.78,3.53-24.78H292Z"/><path class="cls-1" d="M330.35,57.33a5.73,5.73,0,0,0-.38-2.08,5,5,0,0,0-1.31-1.8,9.52,9.52,0,0,0-2.42-1.54,22.87,22.87,0,0,0-3.71-1.29,35.83,35.83,0,0,1-5.16-1.85A18.58,18.58,0,0,1,313,46.09a12.3,12.3,0,0,1-3-3.64,9.84,9.84,0,0,1-1.13-4.78A10.17,10.17,0,0,1,310,32.92a11,11,0,0,1,3.08-3.64A14.58,14.58,0,0,1,317.72,27a19.93,19.93,0,0,1,5.8-.81,18,18,0,0,1,5.93.94,14.06,14.06,0,0,1,4.63,2.63,11.93,11.93,0,0,1,4.09,9.15h-7.79a8.32,8.32,0,0,0-.5-2.56,5.35,5.35,0,0,0-1.31-2A6.13,6.13,0,0,0,326.41,33a8.94,8.94,0,0,0-3-.46,9.46,9.46,0,0,0-2.83.38A6.35,6.35,0,0,0,318.46,34a4.64,4.64,0,0,0-1.29,1.65,4.76,4.76,0,0,0-.44,2.06,3.92,3.92,0,0,0,.58,2.11A5.78,5.78,0,0,0,319,41.5a14.32,14.32,0,0,0,2.69,1.38,32.57,32.57,0,0,0,3.57,1.17,31.25,31.25,0,0,1,5.23,2,16.69,16.69,0,0,1,4.11,2.83,12.16,12.16,0,0,1,2.68,3.73,11.14,11.14,0,0,1,1,4.65,10.41,10.41,0,0,1-1.1,4.85,10.52,10.52,0,0,1-3,3.58,13.63,13.63,0,0,1-4.61,2.22,22.19,22.19,0,0,1-9.74.4A18.45,18.45,0,0,1,316,67.23a16.44,16.44,0,0,1-3.31-1.85,12.12,12.12,0,0,1-2.66-2.59,12,12,0,0,1-1.77-3.36,13,13,0,0,1-.64-4.15h7.85a8.47,8.47,0,0,0,.66,3.21,5.65,5.65,0,0,0,1.66,2.19,7,7,0,0,0,2.56,1.26,13,13,0,0,0,3.29.39A9.8,9.8,0,0,0,326.5,62a6.27,6.27,0,0,0,2.09-1,4.4,4.4,0,0,0,1.76-3.61Z"/><path class="cls-1" d="M348.59,71.69h-7.36l15.5-45h7.36Z"/><path class="cls-1" d="M368.4,44.41V36.76L394,47.17v6.46L368.4,64.07V56.39l16.3-5.46,1.73-.57-1.7-.57Z"/><path class="cls-2" d="M91.56,102.93V87l10.81,11.32V88h2.28v15.82L93.84,92.52v10.41Z"/><path class="cls-2" d="M123,95.49a7.75,7.75,0,1,1-7.75-7.72A7.56,7.56,0,0,1,123,95.49Zm-2.28,0a5.47,5.47,0,1,0-5.47,5.63A5.33,5.33,0,0,0,120.67,95.49Z"/><path class="cls-2" d="M129.36,90.18v12.75h-2.28V90.18h-3.42V88h9.11v2.15Z"/><path class="cls-2" d="M137,88v14.9H134.7V88Z"/><path class="cls-2" d="M151.52,91.52a5.79,5.79,0,0,0-4-1.65,5.32,5.32,0,0,0-5.43,5.67,5.38,5.38,0,0,0,5.45,5.58,5.9,5.9,0,0,0,4-1.72v2.7a8.08,8.08,0,0,1-4.09,1.12,7.49,7.49,0,0,1-5.27-2,7.31,7.31,0,0,1-2.39-5.63,7.79,7.79,0,0,1,2.39-5.83,7.38,7.38,0,0,1,5.38-1.94,7.08,7.08,0,0,1,4,1.07Z"/><path class="cls-2" d="M156.8,88v14.9h-2.28V88Z"/><path class="cls-2" d="M169.09,99.33h-6.36l-1.63,3.6h-2.46l7.42-15.77,7.05,15.77h-2.45Zm-.91-2.14-2.21-5-2.3,5Z"/><path class="cls-2" d="M181.21,91.34a2.45,2.45,0,0,0-.67-.94,2.37,2.37,0,0,0-1.61-.53c-1.38,0-2.1.82-2.1,1.78,0,.45.16,1.23,1.61,1.81l1.5.6c2.74,1.12,3.5,2.68,3.5,4.38a4.59,4.59,0,0,1-4.8,4.78,4.36,4.36,0,0,1-3.51-1.5,4.83,4.83,0,0,1-1.25-2.9l2.26-.49a3.27,3.27,0,0,0,.62,1.9,2.49,2.49,0,0,0,4.4-1.61c0-1.52-1.16-2.14-2.14-2.55l-1.43-.6c-1.23-.51-3-1.54-3-3.77a4,4,0,0,1,4.36-3.93,4.39,4.39,0,0,1,3,1,5.06,5.06,0,0,1,1.14,1.5Z"/><path class="cls-2" d="M194.63,88a8.67,8.67,0,0,1,5.54,1.46,7.35,7.35,0,0,1,2.86,6,7.11,7.11,0,0,1-3,6,8.56,8.56,0,0,1-5.45,1.43h-3.08V88Zm-.85,12.76h1a6.46,6.46,0,0,0,3.95-1.05,5.24,5.24,0,0,0,2-4.25,5.3,5.3,0,0,0-2-4.28,6.65,6.65,0,0,0-4-1h-1Z"/><path class="cls-2" d="M214.05,90.18h-5.94V94h5.76V96.1h-5.76v4.69h5.94v2.14h-8.22V88h8.22Z"/><path class="cls-2" d="M219.36,88v12.76h4.37v2.14h-6.65V88Z"/><path class="cls-2" d="M230.64,102.93l3.12-16,5.18,11.57,5.23-11.57,2.81,16h-2.32l-1.52-9-4.33,9.67-4.29-9.69-1.56,9Z"/><path class="cls-2" d="M251.88,88v9a5.27,5.27,0,0,0,.47,2.57,3.26,3.26,0,0,0,5.54,0,5.16,5.16,0,0,0,.47-2.57V88h2.28v9.59a5.51,5.51,0,0,1-1.39,3.86,5.77,5.77,0,0,1-8.26,0,5.5,5.5,0,0,1-1.38-3.86V88Z"/><path class="cls-2" d="M264.2,102.93V87L275,98.35V88h2.28v15.82L266.48,92.52v10.41Z"/><path class="cls-2" d="M284,88a8.67,8.67,0,0,1,5.54,1.46,7.35,7.35,0,0,1,2.86,6,7.11,7.11,0,0,1-3,6,8.53,8.53,0,0,1-5.45,1.43H280.9V88Zm-.85,12.76h1a6.46,6.46,0,0,0,3.95-1.05,5.24,5.24,0,0,0,2-4.25,5.3,5.3,0,0,0-2-4.28,6.65,6.65,0,0,0-4-1h-1Z"/><path class="cls-2" d="M309.93,95.49a7.75,7.75,0,1,1-7.75-7.72A7.56,7.56,0,0,1,309.93,95.49Zm-2.28,0a5.47,5.47,0,1,0-5.47,5.63A5.33,5.33,0,0,0,307.65,95.49Z"/></svg>